<svg width="90" height="90" viewBox="0 0 90 90" fill="none" xmlns="http://www.w3.org/2000/svg">
<circle cx="45" cy="45" r="43.5" stroke="#A666FF" stroke-width="3"/>
<g clip-path="url(#clip0_121_2)">
<path d="M31.4188 24.1499C31.2343 23.9126 31.0014 23.7172 30.7356 23.5768C30.4699 23.4364 30.1773 23.3542 29.8773 23.3356C29.5772 23.317 29.2767 23.3624 28.9956 23.4688C28.7145 23.5753 28.4593 23.7403 28.2469 23.953L25.0156 27.1874C23.5063 28.6999 22.95 30.8405 23.6094 32.7186C26.3492 40.4908 30.8005 47.548 36.6344 53.3686C42.455 59.2025 49.5122 63.6538 57.2844 66.3936C59.1625 67.053 61.3031 66.4968 62.8156 64.9874L66.0469 61.7561C66.2596 61.5437 66.4246 61.2885 66.5311 61.0074C66.6375 60.7263 66.6829 60.4258 66.6643 60.1258C66.6457 59.8258 66.5635 59.5331 66.4231 59.2674C66.2827 59.0016 66.0873 58.7687 65.85 58.5843L58.6406 52.978C58.3869 52.7818 58.092 52.6455 57.7781 52.5795C57.4642 52.5135 57.1394 52.5194 56.8281 52.5968L49.9844 54.3061C49.0708 54.5329 48.1142 54.52 47.207 54.2687C46.2999 54.0174 45.4729 53.5363 44.8063 52.8718L37.1313 45.1936C36.4662 44.5273 35.9844 43.7005 35.7326 42.7933C35.4808 41.8862 35.4674 40.9294 35.6938 40.0155L37.4063 33.1718C37.4836 32.8605 37.4895 32.5357 37.4235 32.2218C37.3575 31.9079 37.2212 31.613 37.025 31.3593L31.4188 24.1499ZM25.8875 21.5968C26.4344 21.0497 27.0913 20.6253 27.8148 20.3516C28.5383 20.078 29.3117 19.9614 30.0837 20.0095C30.8557 20.0577 31.6086 20.2696 32.2924 20.6311C32.9763 20.9925 33.5754 21.4954 34.05 22.1061L39.6563 29.3124C40.6844 30.6343 41.0469 32.3561 40.6406 33.9811L38.9313 40.8249C38.8435 41.1794 38.8486 41.5505 38.946 41.9025C39.0434 42.2544 39.2299 42.5754 39.4875 42.8343L47.1656 50.5124C47.4248 50.7705 47.7463 50.9573 48.0989 51.0547C48.4514 51.1522 48.8232 51.157 49.1781 51.0686L56.0188 49.3593C56.8208 49.1599 57.6575 49.1449 58.4661 49.3154C59.2748 49.4859 60.0343 49.8375 60.6875 50.3436L67.8938 55.9499C70.4844 57.9655 70.7219 61.7936 68.4031 64.1093L65.1719 67.3405C62.8594 69.653 59.4031 70.6686 56.1813 69.5343C47.9334 66.6361 40.4454 61.9147 34.275 55.7218C28.0824 49.5522 23.3611 42.0654 20.4625 33.8186C19.3313 30.5999 20.3469 27.1405 22.6594 24.828L25.8875 21.5968Z" fill="#C092FF"/>
</g>
<defs>
<clipPath id="clip0_121_2">
<rect width="50" height="50" fill="white" transform="translate(20 20)"/>
</clipPath>
</defs>
</svg>
