<svg width="90" height="90" viewBox="0 0 90 90" fill="none" xmlns="http://www.w3.org/2000/svg">
<path d="M15 30C15 28.0109 15.7902 26.1032 17.1967 24.6967C18.6032 23.2902 20.5109 22.5 22.5 22.5H67.5C69.4891 22.5 71.3968 23.2902 72.8033 24.6967C74.2098 26.1032 75 28.0109 75 30V46.875C75 47.3723 74.8025 47.8492 74.4508 48.2008C74.0992 48.5525 73.6223 48.75 73.125 48.75C72.6277 48.75 72.1508 48.5525 71.7992 48.2008C71.4475 47.8492 71.25 47.3723 71.25 46.875V35.1862L45 50.9363L40.0275 47.955L18.8775 60.9675C19.0906 61.7655 19.5612 62.4708 20.2162 62.9739C20.8712 63.4771 21.674 63.7499 22.5 63.75H43.125C43.6223 63.75 44.0992 63.9475 44.4508 64.2992C44.8025 64.6508 45 65.1277 45 65.625C45 66.1223 44.8025 66.5992 44.4508 66.9508C44.0992 67.3025 43.6223 67.5 43.125 67.5H22.5C20.5174 67.5 18.6154 66.715 17.2099 65.3166C15.8045 63.9182 15.0099 62.0201 15 60.0375V30ZM18.75 56.6437L36.405 45.78L18.75 35.1862V56.6437ZM18.75 30V30.8138L45 46.5637L71.25 30.8138V30C71.25 29.0054 70.8549 28.0516 70.1516 27.3483C69.4484 26.6451 68.4946 26.25 67.5 26.25H22.5C21.5054 26.25 20.5516 26.6451 19.8483 27.3483C19.1451 28.0516 18.75 29.0054 18.75 30Z" fill="#C092FF"/>
<path d="M61.875 75C65.356 75 68.6944 73.6172 71.1558 71.1558C73.6172 68.6944 75 65.356 75 61.875C75 58.394 73.6172 55.0556 71.1558 52.5942C68.6944 50.1328 65.356 48.75 61.875 48.75C58.394 48.75 55.0556 50.1328 52.5942 52.5942C50.1328 55.0556 48.75 58.394 48.75 61.875C48.75 65.356 50.1328 68.6944 52.5942 71.1558C55.0556 73.6172 58.394 75 61.875 75ZM63.2025 54.9225L67.89 59.61C68.2421 59.9621 68.4399 60.4396 68.4399 60.9375C68.4399 61.4354 68.2421 61.9129 67.89 62.265C67.5379 62.6171 67.0604 62.8149 66.5625 62.8149C66.0646 62.8149 65.5871 62.6171 65.235 62.265L63.75 60.7762V67.5C63.75 67.9973 63.5525 68.4742 63.2008 68.8258C62.8492 69.1775 62.3723 69.375 61.875 69.375C61.3777 69.375 60.9008 69.1775 60.5492 68.8258C60.1975 68.4742 60 67.9973 60 67.5V61.0612L58.95 62.205C58.6138 62.5715 58.1459 62.7894 57.649 62.8109C57.1521 62.8323 56.6671 62.6555 56.3006 62.3194C55.9341 61.9832 55.7162 61.5152 55.6947 61.0184C55.6733 60.5215 55.8501 60.0365 56.1862 59.67L60.495 54.9825C60.6659 54.7959 60.8729 54.6459 61.1033 54.5414C61.3338 54.4369 61.583 54.3802 61.8359 54.3746C62.0889 54.369 62.3404 54.4146 62.5752 54.5088C62.8101 54.603 63.0235 54.7437 63.2025 54.9225Z" fill="#A666FF"/>
<circle cx="45" cy="45" r="43.5" stroke="#A666FF" stroke-width="3"/>
</svg>
