<svg width="117" height="80" viewBox="0 0 117 80" fill="none" xmlns="http://www.w3.org/2000/svg">
<mask id="mask0_1_4" style="mask-type:luminance" maskUnits="userSpaceOnUse" x="0" y="14" width="40" height="51">
<path d="M0 14.4916H39.8496V64.8971H0V14.4916Z" fill="white"/>
</mask>
<g mask="url(#mask0_1_4)">
<path d="M36.6293 64.4043C35.9927 64.4043 35.3561 64.214 34.8543 63.8661L2.38154 41.4724C1.68505 40.9933 1.28064 40.2714 1.28064 39.4969C1.28064 38.7159 1.68505 37.9939 2.38154 37.5148L34.8543 15.1277C35.3561 14.7733 35.9927 14.5895 36.6293 14.5895C37.5205 14.5895 38.3443 14.9308 38.891 15.5477C39.3628 16.0728 39.58 16.7357 39.4901 17.4051C39.4002 18.0746 39.0108 18.6718 38.4117 19.0853L8.81469 39.4969L38.4117 59.902C39.0108 60.322 39.4002 60.9193 39.4901 61.5821C39.58 62.2516 39.3628 62.9079 38.891 63.4461C38.3443 64.0499 37.5205 64.4043 36.6293 64.4043Z" fill="#03FA6E"/>
</g>
<mask id="mask1_1_4" style="mask-type:luminance" maskUnits="userSpaceOnUse" x="0" y="12" width="42" height="55">
<path d="M0 12.8115H41.7668V66.5774H0V12.8115Z" fill="white"/>
</mask>
<g mask="url(#mask1_1_4)">
<path d="M36.6293 13.5138C35.7156 13.5138 34.8169 13.7829 34.0979 14.2817L1.62513 36.6688C0.629079 37.3645 0.059906 38.3884 0.059906 39.4976C0.059906 40.6067 0.629079 41.6372 1.62513 42.3197L34.0979 64.7069C34.8169 65.2057 35.7156 65.4813 36.6293 65.4813C37.9024 65.4813 39.0782 64.976 39.8571 64.1031C40.5386 63.3549 40.8307 62.4163 40.7033 61.4581C40.576 60.5064 40.0293 59.6532 39.1681 59.0625L10.7918 39.4976L39.1681 19.9326C40.0293 19.3353 40.576 18.4821 40.7033 17.5305C40.8307 16.5788 40.5386 15.6402 39.8571 14.8855C39.0782 14.0126 37.8949 13.5138 36.6293 13.5138ZM36.6293 15.6599C37.1235 15.6599 37.6028 15.8503 37.9324 16.2112C38.494 16.8413 38.3667 17.7536 37.6553 18.2458L6.83007 39.4976L37.6553 60.7493C38.3667 61.2415 38.494 62.1538 37.9324 62.7773C37.6028 63.1448 37.1235 63.3352 36.6293 63.3352C36.2698 63.3352 35.9178 63.2302 35.6107 63.0201L3.13793 40.633C2.74101 40.3573 2.50885 39.9373 2.50885 39.4976C2.50885 39.0513 2.74101 38.6312 3.13793 38.3556L35.6107 15.9684C35.9103 15.7584 36.2698 15.6599 36.6293 15.6599Z" fill="#5E17EB"/>
</g>
<mask id="mask2_1_4" style="mask-type:luminance" maskUnits="userSpaceOnUse" x="76" y="14" width="41" height="51">
<path d="M76.2766 14.4916H116.471V64.8971H76.2766V14.4916Z" fill="white"/>
</mask>
<g mask="url(#mask2_1_4)">
<path d="M79.4745 64.4043C78.5908 64.4043 77.767 64.0499 77.2128 63.4461C76.2317 62.35 76.4489 60.7617 77.6996 59.902L107.297 39.4969L77.6996 19.0853C76.4489 18.2255 76.2317 16.6372 77.2128 15.5477C77.767 14.9308 78.5908 14.5895 79.4745 14.5895C80.1186 14.5895 80.7477 14.7733 81.2569 15.1277L113.73 37.5148C114.426 37.9939 114.823 38.7159 114.823 39.4969C114.823 40.2714 114.426 40.9933 113.722 41.4724L81.2569 63.8661C80.7477 64.214 80.1186 64.4043 79.4745 64.4043Z" fill="#03FA6E"/>
</g>
<mask id="mask3_1_4" style="mask-type:luminance" maskUnits="userSpaceOnUse" x="74" y="12" width="43" height="55">
<path d="M74.3595 12.8115H116.471V66.5774H74.3595V12.8115Z" fill="white"/>
</mask>
<g mask="url(#mask3_1_4)">
<path d="M79.4745 13.5138C78.2089 13.5138 77.0331 14.0126 76.2542 14.8855C74.8537 16.441 75.1608 18.7053 76.9357 19.9326L105.312 39.4976L76.9357 59.0625C75.1608 60.2833 74.8537 62.5476 76.2542 64.1031C77.0331 64.976 78.2089 65.4813 79.4745 65.4813C80.3957 65.4813 81.2869 65.2057 82.0059 64.7069L114.486 42.3197C115.475 41.6372 116.044 40.6067 116.044 39.4976C116.044 38.3884 115.475 37.3645 114.486 36.6688L82.0133 14.2817C81.2944 13.7829 80.3957 13.5138 79.4745 13.5138ZM79.4745 15.6599C79.834 15.6599 80.1935 15.7584 80.4931 15.9684L112.973 38.3556C113.37 38.6312 113.595 39.0513 113.595 39.4976C113.595 39.9373 113.37 40.3573 112.973 40.633L80.4931 63.0201C80.1935 63.2302 79.834 63.3352 79.4745 63.3352C78.9877 63.3352 78.5009 63.1448 78.1789 62.7773C77.6172 62.1538 77.7371 61.2415 78.456 60.7493L109.274 39.4976L78.456 18.2458C77.7371 17.7536 77.6172 16.8413 78.1789 16.2112C78.5009 15.8503 78.9877 15.6599 79.4745 15.6599Z" fill="#5E17EB"/>
</g>
<path d="M41.9164 77.9186C41.5569 77.9186 41.2124 77.853 40.8754 77.7414C40.164 77.4985 39.5948 77.026 39.2877 76.4156C38.9732 75.7921 38.9582 75.1095 39.2353 74.486L70.9442 2.68439C71.3711 1.72616 72.4495 1.0764 73.6253 1.0764C73.9848 1.0764 74.3368 1.13547 74.6738 1.24704C76.1417 1.75241 76.8831 3.21601 76.3139 4.50897L44.5975 76.304C44.1781 77.2688 43.0922 77.9186 41.9164 77.9186Z" fill="#03FA6E"/>
<mask id="mask4_1_4" style="mask-type:luminance" maskUnits="userSpaceOnUse" x="36" y="0" width="43" height="80">
<path d="M36.0151 0H78.1938V79.3887H36.0151V0Z" fill="white"/>
</mask>
<g mask="url(#mask4_1_4)">
<path d="M73.6255 0C71.9479 0 70.4052 0.931977 69.806 2.29713L38.0896 74.0922C37.7002 74.9914 37.7227 75.9693 38.1645 76.8488C38.6064 77.7217 39.4152 78.3977 40.4337 78.7455C40.913 78.9096 41.4073 78.9884 41.9166 78.9884C43.5941 78.9884 45.1369 78.063 45.7435 76.6912L77.4524 4.89616C78.2687 3.04534 77.2203 0.958229 75.1083 0.249402C74.6365 0.0853206 74.1348 0 73.6255 0ZM73.6255 2.14617C73.8277 2.14617 74.0299 2.18555 74.2246 2.25118C75.0784 2.5334 75.4978 3.37349 75.1683 4.1217L43.4519 75.9168C43.2047 76.4878 42.5756 76.8422 41.9166 76.8422C41.7144 76.8422 41.5122 76.8094 41.3175 76.7437C40.4637 76.455 40.0443 75.6149 40.3813 74.8732L72.0902 3.07815C72.3449 2.50059 72.9665 2.14617 73.6255 2.14617Z" fill="#5E17EB"/>
</g>
</svg>
