<svg width="90" height="90" viewBox="0 0 90 90" fill="none" xmlns="http://www.w3.org/2000/svg">
<path d="M24.3298 57.2548C23.6881 57.2646 23.1679 57.3582 22.835 57.6088C22.6488 57.749 22.5162 57.9428 22.4756 58.1799C22.4372 58.4037 22.4904 58.6105 22.5634 58.7748C22.7047 59.0928 22.9793 59.3842 23.246 59.6146C23.5221 59.8531 23.8402 60.0688 24.13 60.2284C24.3769 60.3708 24.6628 60.6292 24.9675 60.982C25.269 61.3312 25.5679 61.7479 25.8432 62.1771C26.3941 63.036 26.8246 63.9037 26.9803 64.3087C27.3047 65.2407 28.0022 66.6167 29.643 67.56C31.1985 68.4543 33.5288 68.9179 37.0381 68.3468C37.0404 69.4234 37.0483 70.4507 37.0563 71.3125C37.0592 71.6256 37.062 71.9162 37.0646 72.1793C37.0705 72.775 37.075 73.2289 37.075 73.4802C37.075 73.7781 36.9704 74.0624 36.7701 74.2443C36.5873 74.4103 36.2509 74.5576 35.637 74.4554C23.9335 70.4377 15.5 59.1414 15.5 45.7588C15.5 29.0289 28.7128 15.5 45 15.5C61.2872 15.5 74.5 29.0289 74.5 45.7588C74.5001 52.1023 72.559 58.2847 68.952 63.4352C65.3516 68.5762 60.2731 72.4297 54.4311 74.4576C53.8204 74.5758 53.4886 74.4282 53.3078 74.2614C53.106 74.0752 53 73.7803 53 73.4802C53 73.1348 53.0042 72.537 53.0097 71.7388C53.0125 71.3423 53.0156 70.8964 53.0187 70.4075C53.0281 68.9363 53.0375 67.08 53.0375 65.0215C53.0375 62.6228 52.4105 60.8628 51.5323 59.7038C54.6026 59.2634 57.7389 58.3586 60.1854 56.2547C62.9106 53.911 64.7 50.1512 64.7 44.144C64.7 40.752 63.5698 37.9785 61.6957 35.7721C62.0913 34.6161 62.8471 31.5339 61.2908 27.5447L61.2059 27.3271L60.9845 27.2526L60.825 27.7265C60.9845 27.2526 60.984 27.2524 60.9835 27.2523L60.9824 27.2519L60.9801 27.2511L60.9748 27.2494L60.9613 27.2452C60.951 27.2421 60.9382 27.2385 60.9228 27.2344C60.8921 27.2263 60.8512 27.2167 60.8 27.2069C60.6975 27.1872 60.5541 27.167 60.3686 27.1574C59.9972 27.1382 59.4599 27.1616 58.7468 27.3145C57.3535 27.6131 55.2935 28.4049 52.4844 30.3339C50.1045 29.6715 47.5887 29.3411 45.075 29.3411C42.5609 29.3411 40.0446 29.6716 37.6642 30.3343C34.8554 28.4235 32.7963 27.6325 31.4049 27.3292C30.6927 27.174 30.1564 27.1469 29.786 27.1626C29.6009 27.1705 29.458 27.189 29.3558 27.2074C29.3048 27.2165 29.264 27.2256 29.2334 27.2333C29.2181 27.2371 29.2054 27.2405 29.1951 27.2435L29.1817 27.2474L29.1764 27.2491L29.1741 27.2498L29.173 27.2501C29.1725 27.2503 29.172 27.2504 29.325 27.7265L29.172 27.2504L28.9456 27.3232L28.8592 27.5447C27.3029 31.534 28.0588 34.6163 28.4543 35.7722C26.5797 37.9815 25.45 40.7899 25.45 44.144C25.45 50.1316 27.2297 53.8909 29.9448 56.2393C32.3836 58.3489 35.5131 59.2621 38.584 59.7041C37.9637 60.526 37.4624 61.6544 37.2322 63.1014C36.389 63.4632 35.0974 63.8547 33.7313 63.7259C32.2608 63.5873 30.6513 62.8429 29.3824 60.6566L29.3825 60.6565L29.3769 60.6473C29.0791 60.1587 28.4849 59.3146 27.6449 58.5917C26.8064 57.8702 25.6791 57.233 24.3298 57.2548ZM24.3298 57.2548L24.3375 57.7547M24.3298 57.2548C24.3297 57.2548 24.3295 57.2548 24.3294 57.2548L24.3375 57.7547M24.3375 57.7547C21.825 57.7932 23.325 59.2158 24.375 59.7925L37.6875 63.4451C35.9625 64.2526 31.65 65.5598 28.95 60.9075C28.3875 59.9848 26.7 57.7163 24.3375 57.7547Z" stroke="#C092FF"/>
<circle cx="45" cy="45" r="43.5" stroke="#A666FF" stroke-width="3"/>
</svg>
