<svg width="87" height="85" viewBox="0 0 87 85" fill="none" xmlns="http://www.w3.org/2000/svg">
<path d="M86 42.5C86 65.398 66.9941 84 43.5 84C20.0058 84 1 65.398 1 42.5C1 19.602 20.0058 1 43.5 1C66.9941 1 86 19.602 86 42.5Z" stroke="white" stroke-width="2"/>
<path d="M31.3866 36.9857L26.3273 42.6453C24.2525 44.9662 23.0869 48.1141 23.0869 51.3964C23.0869 54.6788 24.2525 57.8267 26.3273 60.1476C28.4021 62.4686 31.2161 63.7725 34.1504 63.7725C37.0846 63.7725 39.8986 62.4686 41.9734 60.1476L48.7141 52.603C49.9653 51.2032 50.898 49.4881 51.434 47.6016C51.97 45.7152 52.0936 43.7124 51.7945 41.7614C51.4954 39.8104 50.7823 37.9682 49.715 36.3893C48.6478 34.8104 47.2575 33.541 45.6609 32.6875L43.5 35.1047C43.2806 35.3505 43.0898 35.6263 42.9321 35.9256C44.1657 36.3223 45.2854 37.0723 46.1804 38.1014C47.0755 39.1305 47.715 40.4031 48.0356 41.7934C48.3563 43.1836 48.3471 44.6435 48.0088 46.0285C47.6706 47.4136 47.0151 48.6759 46.1071 49.6907L39.37 57.2312C37.9862 58.7793 36.1093 59.649 34.1522 59.649C32.1951 59.649 30.3182 58.7793 28.9344 57.2312C27.5505 55.6832 26.7731 53.5836 26.7731 51.3944C26.7731 49.2051 27.5505 47.1055 28.9344 45.5575L31.8586 42.2905C31.4448 40.5612 31.2854 38.7723 31.3866 36.9857Z" fill="white"/>
<path d="M38.2858 29.272C37.0347 30.6718 36.102 32.3869 35.566 34.2734C35.03 36.1599 34.9063 38.1627 35.2054 40.1136C35.5046 42.0646 36.2177 43.9069 37.2849 45.4858C38.3522 47.0646 39.7425 48.3341 41.3391 49.1875L44.1969 45.9865C42.9466 45.6114 41.8067 44.8748 40.8916 43.8506C39.9764 42.8265 39.3184 41.551 38.9836 40.1522C38.6487 38.7535 38.6489 37.2808 38.984 35.8821C39.3192 34.4835 39.9775 33.2082 40.8929 32.1843L47.63 24.6438C49.0138 23.0958 50.8907 22.2261 52.8478 22.2261C54.8048 22.2261 56.6817 23.0958 58.0656 24.6438C59.4494 26.1918 60.2269 28.2914 60.2269 30.4807C60.2269 32.6699 59.4494 34.7695 58.0656 36.3175L55.1414 39.5845C55.5544 41.317 55.713 43.1114 55.6134 44.8934L60.6727 39.2339C62.7474 36.913 63.9131 33.7651 63.9131 30.4827C63.9131 27.2004 62.7474 24.0525 60.6727 21.7316C58.5979 19.4106 55.7838 18.1067 52.8496 18.1067C49.9154 18.1067 47.1014 19.4106 45.0266 21.7316L38.2858 29.272Z" fill="white"/>
</svg>
