<svg width="247" height="82" viewBox="0 0 247 82" fill="none" xmlns="http://www.w3.org/2000/svg">
<mask id="mask0_1_3" style="mask-type:luminance" maskUnits="userSpaceOnUse" x="0" y="14" width="40" height="51">
<path d="M0 14.4916H39.8496V64.8971H0V14.4916Z" fill="white"/>
</mask>
<g mask="url(#mask0_1_3)">
<path d="M36.6293 64.4043C35.9927 64.4043 35.3561 64.214 34.8543 63.8661L2.38154 41.4724C1.68505 40.9933 1.28064 40.2714 1.28064 39.4969C1.28064 38.7159 1.68505 37.9939 2.38154 37.5148L34.8543 15.1277C35.3561 14.7733 35.9927 14.5895 36.6293 14.5895C37.5205 14.5895 38.3443 14.9308 38.891 15.5477C39.3628 16.0728 39.58 16.7357 39.4901 17.4051C39.4002 18.0746 39.0108 18.6718 38.4117 19.0853L8.81469 39.4969L38.4117 59.902C39.0108 60.322 39.4002 60.9193 39.4901 61.5821C39.58 62.2516 39.3628 62.9079 38.891 63.4461C38.3443 64.0499 37.5205 64.4043 36.6293 64.4043Z" fill="#03FA6E"/>
</g>
<mask id="mask1_1_3" style="mask-type:luminance" maskUnits="userSpaceOnUse" x="0" y="12" width="42" height="55">
<path d="M0 12.8115H41.7668V66.5774H0V12.8115Z" fill="white"/>
</mask>
<g mask="url(#mask1_1_3)">
<path d="M36.6293 13.5138C35.7156 13.5138 34.8169 13.7829 34.0979 14.2817L1.62513 36.6688C0.629079 37.3645 0.059906 38.3884 0.059906 39.4976C0.059906 40.6067 0.629079 41.6372 1.62513 42.3197L34.0979 64.7069C34.8169 65.2057 35.7156 65.4813 36.6293 65.4813C37.9024 65.4813 39.0782 64.976 39.8571 64.1031C40.5386 63.3549 40.8307 62.4163 40.7033 61.4581C40.576 60.5064 40.0293 59.6532 39.1681 59.0625L10.7918 39.4976L39.1681 19.9326C40.0293 19.3353 40.576 18.4821 40.7033 17.5305C40.8307 16.5788 40.5386 15.6402 39.8571 14.8855C39.0782 14.0126 37.8949 13.5138 36.6293 13.5138ZM36.6293 15.6599C37.1235 15.6599 37.6028 15.8503 37.9324 16.2112C38.494 16.8413 38.3667 17.7536 37.6553 18.2458L6.83007 39.4976L37.6553 60.7493C38.3667 61.2415 38.494 62.1538 37.9324 62.7773C37.6028 63.1448 37.1235 63.3352 36.6293 63.3352C36.2698 63.3352 35.9178 63.2302 35.6107 63.0201L3.13793 40.633C2.74101 40.3573 2.50885 39.9373 2.50885 39.4976C2.50885 39.0513 2.74101 38.6312 3.13793 38.3556L35.6107 15.9684C35.9103 15.7584 36.2698 15.6599 36.6293 15.6599Z" fill="#5E17EB"/>
</g>
<mask id="mask2_1_3" style="mask-type:luminance" maskUnits="userSpaceOnUse" x="76" y="14" width="41" height="51">
<path d="M76.2766 14.4916H116.471V64.8971H76.2766V14.4916Z" fill="white"/>
</mask>
<g mask="url(#mask2_1_3)">
<path d="M79.4745 64.4043C78.5908 64.4043 77.767 64.0499 77.2128 63.4461C76.2317 62.35 76.4489 60.7617 77.6996 59.902L107.297 39.4969L77.6996 19.0853C76.4489 18.2255 76.2317 16.6372 77.2128 15.5477C77.767 14.9308 78.5908 14.5895 79.4745 14.5895C80.1186 14.5895 80.7477 14.7733 81.2569 15.1277L113.73 37.5148C114.426 37.9939 114.823 38.7159 114.823 39.4969C114.823 40.2714 114.426 40.9933 113.722 41.4724L81.2569 63.8661C80.7477 64.214 80.1186 64.4043 79.4745 64.4043Z" fill="#03FA6E"/>
</g>
<mask id="mask3_1_3" style="mask-type:luminance" maskUnits="userSpaceOnUse" x="74" y="12" width="43" height="55">
<path d="M74.3595 12.8115H116.471V66.5774H74.3595V12.8115Z" fill="white"/>
</mask>
<g mask="url(#mask3_1_3)">
<path d="M79.4745 13.5138C78.2089 13.5138 77.0331 14.0126 76.2542 14.8855C74.8537 16.441 75.1608 18.7053 76.9357 19.9326L105.312 39.4976L76.9357 59.0625C75.1608 60.2833 74.8537 62.5476 76.2542 64.1031C77.0331 64.976 78.2089 65.4813 79.4745 65.4813C80.3957 65.4813 81.2869 65.2057 82.0059 64.7069L114.486 42.3197C115.475 41.6372 116.044 40.6067 116.044 39.4976C116.044 38.3884 115.475 37.3645 114.486 36.6688L82.0133 14.2817C81.2944 13.7829 80.3957 13.5138 79.4745 13.5138ZM79.4745 15.6599C79.834 15.6599 80.1935 15.7584 80.4931 15.9684L112.973 38.3556C113.37 38.6312 113.595 39.0513 113.595 39.4976C113.595 39.9373 113.37 40.3573 112.973 40.633L80.4931 63.0201C80.1935 63.2302 79.834 63.3352 79.4745 63.3352C78.9877 63.3352 78.5009 63.1448 78.1789 62.7773C77.6172 62.1538 77.7371 61.2415 78.456 60.7493L109.274 39.4976L78.456 18.2458C77.7371 17.7536 77.6172 16.8413 78.1789 16.2112C78.5009 15.8503 78.9877 15.6599 79.4745 15.6599Z" fill="#5E17EB"/>
</g>
<path d="M41.9164 77.9186C41.5569 77.9186 41.2124 77.853 40.8754 77.7414C40.164 77.4985 39.5948 77.026 39.2877 76.4156C38.9732 75.7921 38.9582 75.1095 39.2353 74.486L70.9442 2.68439C71.3711 1.72616 72.4495 1.0764 73.6253 1.0764C73.9848 1.0764 74.3368 1.13547 74.6738 1.24704C76.1417 1.75241 76.8831 3.21601 76.3139 4.50897L44.5975 76.304C44.1781 77.2688 43.0922 77.9186 41.9164 77.9186Z" fill="#03FA6E"/>
<mask id="mask4_1_3" style="mask-type:luminance" maskUnits="userSpaceOnUse" x="36" y="0" width="43" height="80">
<path d="M36.0151 0H78.1938V79.3887H36.0151V0Z" fill="white"/>
</mask>
<g mask="url(#mask4_1_3)">
<path d="M73.6255 0C71.9479 0 70.4052 0.931977 69.806 2.29713L38.0896 74.0922C37.7002 74.9914 37.7227 75.9693 38.1645 76.8488C38.6064 77.7217 39.4152 78.3977 40.4337 78.7455C40.913 78.9096 41.4073 78.9884 41.9166 78.9884C43.5941 78.9884 45.1369 78.063 45.7435 76.6912L77.4524 4.89616C78.2687 3.04534 77.2203 0.958229 75.1083 0.249402C74.6365 0.0853206 74.1348 0 73.6255 0ZM73.6255 2.14617C73.8277 2.14617 74.0299 2.18555 74.2246 2.25118C75.0784 2.5334 75.4978 3.37349 75.1683 4.1217L43.4519 75.9168C43.2047 76.4878 42.5756 76.8422 41.9166 76.8422C41.7144 76.8422 41.5122 76.8094 41.3175 76.7437C40.4637 76.455 40.0443 75.6149 40.3813 74.8732L72.0902 3.07815C72.3449 2.50059 72.9665 2.14617 73.6255 2.14617Z" fill="#5E17EB"/>
</g>
<path d="M149.68 39H140.769V36.4731H149.68V39ZM141.648 39H138.499V21.2266H141.648V39ZM159.153 30.0767C159.153 29.3931 158.962 28.8478 158.579 28.4409C158.205 28.034 157.635 27.8306 156.87 27.8306C156.414 27.8306 156.016 27.9119 155.674 28.0747C155.332 28.2293 155.068 28.4409 154.88 28.7095C154.693 28.978 154.6 29.2832 154.6 29.625H151.572C151.572 28.917 151.796 28.2537 152.244 27.6353C152.691 27.0086 153.322 26.5041 154.136 26.1216C154.958 25.7391 155.926 25.5479 157.041 25.5479C158.034 25.5479 158.917 25.7147 159.69 26.0483C160.463 26.382 161.069 26.8866 161.509 27.562C161.956 28.2375 162.18 29.0838 162.18 30.1011V35.9238C162.18 36.5423 162.225 37.0876 162.314 37.5596C162.404 38.0316 162.53 38.4425 162.693 38.7925V39H159.592C159.454 38.6826 159.344 38.2716 159.263 37.7671C159.189 37.2625 159.153 36.7702 159.153 36.29V30.0767ZM159.617 32.8232H157.541C156.467 32.8232 155.658 33.0226 155.112 33.4214C154.575 33.812 154.307 34.3451 154.307 35.0205C154.307 35.5413 154.486 35.9767 154.844 36.3267C155.202 36.6685 155.706 36.8394 156.357 36.8394C156.951 36.8394 157.468 36.7214 157.908 36.4854C158.355 36.2412 158.705 35.9442 158.958 35.5942C159.21 35.2362 159.34 34.9025 159.348 34.5933L160.312 35.9482C160.215 36.2819 160.048 36.64 159.812 37.0225C159.584 37.3968 159.279 37.7549 158.896 38.0967C158.522 38.4303 158.075 38.707 157.554 38.9268C157.041 39.1383 156.443 39.2441 155.759 39.2441C154.897 39.2441 154.128 39.0732 153.452 38.7314C152.777 38.3896 152.244 37.9217 151.853 37.3276C151.471 36.7254 151.279 36.05 151.279 35.3013C151.279 33.9015 151.804 32.8273 152.854 32.0786C153.904 31.3299 155.393 30.9556 157.322 30.9556H159.592L159.617 32.8232ZM168.271 39H165.244V25.792H168.125L168.271 28.3799V39ZM172.251 28.5752C172.064 28.5426 171.864 28.5182 171.653 28.502C171.449 28.4857 171.246 28.4775 171.042 28.4775C170.375 28.4775 169.818 28.5996 169.37 28.8438C168.931 29.0798 168.597 29.4215 168.369 29.8691C168.141 30.3086 168.007 30.8294 167.966 31.4316L167.27 31.4438C167.27 30.3289 167.417 29.328 167.71 28.4409C168.003 27.5539 168.442 26.8499 169.028 26.3291C169.614 25.8083 170.347 25.5479 171.226 25.5479C171.396 25.5479 171.588 25.5641 171.799 25.5967C172.011 25.6292 172.17 25.6659 172.275 25.7065L172.251 28.5752ZM177.329 39H174.302V25.792H177.329V39ZM174.106 22.3374C174.106 21.8735 174.257 21.491 174.558 21.1899C174.859 20.8807 175.278 20.7261 175.815 20.7261C176.353 20.7261 176.776 20.8807 177.085 21.1899C177.394 21.491 177.549 21.8735 177.549 22.3374C177.549 22.7931 177.394 23.1756 177.085 23.4849C176.776 23.786 176.353 23.9365 175.815 23.9365C175.278 23.9365 174.859 23.786 174.558 23.4849C174.257 23.1756 174.106 22.7931 174.106 22.3374ZM187.9 35.3989C187.9 35.1222 187.827 34.87 187.681 34.6421C187.542 34.4142 187.27 34.2026 186.863 34.0073C186.456 33.812 185.858 33.633 185.068 33.4702C184.132 33.2749 183.306 33.0145 182.59 32.689C181.882 32.3634 181.329 31.9443 180.93 31.4316C180.54 30.9189 180.344 30.2923 180.344 29.5518C180.344 28.8356 180.548 28.1764 180.955 27.5742C181.37 26.9639 181.96 26.4756 182.725 26.1094C183.498 25.735 184.409 25.5479 185.459 25.5479C186.566 25.5479 187.518 25.735 188.315 26.1094C189.113 26.4756 189.723 26.9761 190.146 27.6108C190.578 28.2375 190.793 28.9495 190.793 29.7471H187.766C187.766 29.2262 187.571 28.7705 187.18 28.3799C186.798 27.9811 186.22 27.7817 185.447 27.7817C184.967 27.7817 184.564 27.859 184.238 28.0137C183.921 28.1683 183.681 28.3677 183.518 28.6118C183.363 28.856 183.286 29.1245 183.286 29.4175C183.286 29.7023 183.363 29.9505 183.518 30.1621C183.681 30.3737 183.953 30.5609 184.336 30.7236C184.727 30.8864 185.272 31.041 185.972 31.1875C186.981 31.3991 187.852 31.6676 188.584 31.9932C189.316 32.3105 189.878 32.7337 190.269 33.2627C190.667 33.7835 190.867 34.4468 190.867 35.2524C190.867 36.0256 190.643 36.7132 190.195 37.3154C189.756 37.9176 189.133 38.3896 188.328 38.7314C187.53 39.0732 186.586 39.2441 185.496 39.2441C184.283 39.2441 183.262 39.0285 182.432 38.5972C181.602 38.1659 180.971 37.6165 180.54 36.9492C180.116 36.2738 179.905 35.5739 179.905 34.8496H182.822C182.855 35.3704 183.001 35.7896 183.262 36.1069C183.53 36.4243 183.864 36.6562 184.263 36.8027C184.67 36.9411 185.093 37.0103 185.532 37.0103C186.053 37.0103 186.484 36.9411 186.826 36.8027C187.176 36.6644 187.441 36.4772 187.62 36.2412C187.807 35.9971 187.9 35.7163 187.9 35.3989ZM200.791 35.3989C200.791 35.1222 200.718 34.87 200.571 34.6421C200.433 34.4142 200.16 34.2026 199.753 34.0073C199.347 33.812 198.748 33.633 197.959 33.4702C197.023 33.2749 196.197 33.0145 195.481 32.689C194.773 32.3634 194.22 31.9443 193.821 31.4316C193.43 30.9189 193.235 30.2923 193.235 29.5518C193.235 28.8356 193.438 28.1764 193.845 27.5742C194.26 26.9639 194.85 26.4756 195.615 26.1094C196.388 25.735 197.3 25.5479 198.35 25.5479C199.456 25.5479 200.409 25.735 201.206 26.1094C202.004 26.4756 202.614 26.9761 203.037 27.6108C203.468 28.2375 203.684 28.9495 203.684 29.7471H200.657C200.657 29.2262 200.461 28.7705 200.071 28.3799C199.688 27.9811 199.11 27.7817 198.337 27.7817C197.857 27.7817 197.454 27.859 197.129 28.0137C196.812 28.1683 196.571 28.3677 196.409 28.6118C196.254 28.856 196.177 29.1245 196.177 29.4175C196.177 29.7023 196.254 29.9505 196.409 30.1621C196.571 30.3737 196.844 30.5609 197.227 30.7236C197.617 30.8864 198.162 31.041 198.862 31.1875C199.871 31.3991 200.742 31.6676 201.475 31.9932C202.207 32.3105 202.769 32.7337 203.159 33.2627C203.558 33.7835 203.757 34.4468 203.757 35.2524C203.757 36.0256 203.534 36.7132 203.086 37.3154C202.646 37.9176 202.024 38.3896 201.218 38.7314C200.421 39.0732 199.477 39.2441 198.386 39.2441C197.174 39.2441 196.152 39.0285 195.322 38.5972C194.492 38.1659 193.861 37.6165 193.43 36.9492C193.007 36.2738 192.795 35.5739 192.795 34.8496H195.713C195.745 35.3704 195.892 35.7896 196.152 36.1069C196.421 36.4243 196.755 36.6562 197.153 36.8027C197.56 36.9411 197.983 37.0103 198.423 37.0103C198.944 37.0103 199.375 36.9411 199.717 36.8027C200.067 36.6644 200.331 36.4772 200.51 36.2412C200.697 35.9971 200.791 35.7163 200.791 35.3989ZM213.718 30.0767C213.718 29.3931 213.527 28.8478 213.145 28.4409C212.77 28.034 212.201 27.8306 211.436 27.8306C210.98 27.8306 210.581 27.9119 210.239 28.0747C209.897 28.2293 209.633 28.4409 209.446 28.7095C209.259 28.978 209.165 29.2832 209.165 29.625H206.138C206.138 28.917 206.361 28.2537 206.809 27.6353C207.257 27.0086 207.887 26.5041 208.701 26.1216C209.523 25.7391 210.492 25.5479 211.606 25.5479C212.599 25.5479 213.482 25.7147 214.255 26.0483C215.028 26.382 215.635 26.8866 216.074 27.562C216.522 28.2375 216.746 29.0838 216.746 30.1011V35.9238C216.746 36.5423 216.79 37.0876 216.88 37.5596C216.969 38.0316 217.096 38.4425 217.258 38.7925V39H214.158C214.019 38.6826 213.909 38.2716 213.828 37.7671C213.755 37.2625 213.718 36.7702 213.718 36.29V30.0767ZM214.182 32.8232H212.107C211.033 32.8232 210.223 33.0226 209.678 33.4214C209.141 33.812 208.872 34.3451 208.872 35.0205C208.872 35.5413 209.051 35.9767 209.409 36.3267C209.767 36.6685 210.272 36.8394 210.923 36.8394C211.517 36.8394 212.034 36.7214 212.473 36.4854C212.921 36.2412 213.271 35.9442 213.523 35.5942C213.775 35.2362 213.905 34.9025 213.914 34.5933L214.878 35.9482C214.78 36.2819 214.613 36.64 214.377 37.0225C214.15 37.3968 213.844 37.7549 213.462 38.0967C213.088 38.4303 212.64 38.707 212.119 38.9268C211.606 39.1383 211.008 39.2441 210.325 39.2441C209.462 39.2441 208.693 39.0732 208.018 38.7314C207.342 38.3896 206.809 37.9217 206.418 37.3276C206.036 36.7254 205.845 36.05 205.845 35.3013C205.845 33.9015 206.37 32.8273 207.419 32.0786C208.469 31.3299 209.958 30.9556 211.887 30.9556H214.158L214.182 32.8232Z" fill="white"/>
<path d="M156.471 62H153.824L159.176 47.7812H160.855L160.689 49.8027L156.471 62ZM159.957 49.8027L159.771 47.7812H161.461L166.832 62H164.186L159.957 49.8027ZM164.02 58.748H156.275V56.7168H164.02V58.748ZM170.768 62H168.346V47H170.768V62ZM179.312 51.4336H181.822L178.17 62H176.607L176.764 60.0859L179.312 51.4336ZM177.447 60.1152L177.564 62H176.012L172.33 51.4336H174.85L177.447 60.1152ZM187.945 62.1953C186.897 62.1953 185.992 61.9707 185.23 61.5215C184.469 61.0658 183.883 60.4538 183.473 59.6855C183.062 58.9108 182.857 58.0449 182.857 57.0879V56.6875C182.857 55.5872 183.066 54.6302 183.482 53.8164C183.899 52.9961 184.469 52.3613 185.191 51.9121C185.921 51.4629 186.744 51.2383 187.662 51.2383C188.678 51.2383 189.521 51.4596 190.191 51.9023C190.862 52.3385 191.363 52.9473 191.695 53.7285C192.027 54.5033 192.193 55.4017 192.193 56.4238V57.4688H184.02V55.7207H189.801V55.5352C189.788 55.125 189.71 54.7409 189.566 54.3828C189.423 54.0247 189.195 53.735 188.883 53.5137C188.577 53.2923 188.167 53.1816 187.652 53.1816C187.138 53.1816 186.705 53.3281 186.353 53.6211C186.002 53.9076 185.735 54.3145 185.553 54.8418C185.37 55.3626 185.279 55.9779 185.279 56.6875V57.0879C185.279 57.6868 185.39 58.224 185.611 58.6992C185.833 59.1745 186.155 59.5521 186.578 59.832C187.001 60.1055 187.506 60.2422 188.092 60.2422C188.658 60.2422 189.159 60.1315 189.596 59.9102C190.038 59.6888 190.419 59.3698 190.738 58.9531L192.008 60.2227C191.676 60.724 191.174 61.1797 190.504 61.5898C189.84 61.9935 188.987 62.1953 187.945 62.1953ZM199.908 59.1191C199.908 58.8978 199.85 58.696 199.732 58.5137C199.622 58.3314 199.404 58.1621 199.078 58.0059C198.753 57.8496 198.274 57.7064 197.643 57.5762C196.894 57.4199 196.233 57.2116 195.66 56.9512C195.094 56.6908 194.651 56.3555 194.332 55.9453C194.02 55.5352 193.863 55.0339 193.863 54.4414C193.863 53.8685 194.026 53.3411 194.352 52.8594C194.684 52.3711 195.156 51.9805 195.768 51.6875C196.386 51.388 197.115 51.2383 197.955 51.2383C198.84 51.2383 199.602 51.388 200.24 51.6875C200.878 51.9805 201.367 52.3809 201.705 52.8887C202.05 53.39 202.223 53.9596 202.223 54.5977H199.801C199.801 54.181 199.645 53.8164 199.332 53.5039C199.026 53.1849 198.564 53.0254 197.945 53.0254C197.561 53.0254 197.239 53.0872 196.978 53.2109C196.725 53.3346 196.533 53.4941 196.402 53.6895C196.279 53.8848 196.217 54.0996 196.217 54.334C196.217 54.5618 196.279 54.7604 196.402 54.9297C196.533 55.099 196.751 55.2487 197.057 55.3789C197.369 55.5091 197.805 55.6328 198.365 55.75C199.173 55.9193 199.869 56.1341 200.455 56.3945C201.041 56.6484 201.49 56.987 201.803 57.4102C202.122 57.8268 202.281 58.3574 202.281 59.002C202.281 59.6204 202.102 60.1706 201.744 60.6523C201.393 61.1341 200.895 61.5117 200.25 61.7852C199.612 62.0586 198.857 62.1953 197.984 62.1953C197.014 62.1953 196.197 62.0228 195.533 61.6777C194.869 61.3327 194.365 60.8932 194.02 60.3594C193.681 59.819 193.512 59.2591 193.512 58.6797H195.846C195.872 59.0964 195.989 59.4316 196.197 59.6855C196.412 59.9395 196.679 60.125 196.998 60.2422C197.324 60.3529 197.662 60.4082 198.014 60.4082C198.43 60.4082 198.775 60.3529 199.049 60.2422C199.329 60.1315 199.54 59.9818 199.684 59.793C199.833 59.5977 199.908 59.373 199.908 59.1191Z" fill="#A666FF"/>
</svg>
