<svg width="34" height="32" viewBox="0 0 34 32" fill="none" xmlns="http://www.w3.org/2000/svg">
<path d="M17 0C12.3866 0 11.8065 0.02 9.99387 0.096C8.18125 0.176 6.94662 0.444 5.865 0.84C4.72992 1.24065 3.70205 1.8708 2.85388 2.686C1.98772 3.48428 1.31819 4.45169 0.8925 5.52C0.47175 6.536 0.184875 7.7 0.102 9.4C0.02125 11.11 0 11.654 0 16.002C0 20.346 0.02125 20.89 0.102 22.596C0.187 24.3 0.47175 25.462 0.8925 26.48C1.32812 27.532 1.90825 28.424 2.85388 29.314C3.79738 30.204 4.74513 30.752 5.86288 31.16C6.94663 31.556 8.17913 31.826 9.98963 31.904C11.8044 31.98 12.3824 32 17 32C21.6176 32 22.1935 31.98 24.0083 31.904C25.8166 31.824 27.0555 31.556 28.1371 31.16C29.2714 30.7591 30.2986 30.129 31.1461 29.314C32.0917 28.424 32.6719 27.532 33.1075 26.48C33.5261 25.462 33.813 24.3 33.898 22.596C33.9787 20.89 34 20.346 34 16C34 11.654 33.9787 11.11 33.898 9.402C33.813 7.7 33.5261 6.536 33.1075 5.52C32.6818 4.45169 32.0123 3.48428 31.1461 2.686C30.2979 1.8708 29.2701 1.24065 28.135 0.84C27.0512 0.444 25.8145 0.174 24.0061 0.096C22.1914 0.02 21.6155 0 16.9958 0H17ZM15.4764 2.884H17.0021C21.5411 2.884 22.0787 2.898 23.8701 2.976C25.5276 3.046 26.4286 3.308 27.0279 3.526C27.8205 3.816 28.3879 4.164 28.9829 4.724C29.5779 5.284 29.9455 5.816 30.2536 6.564C30.4874 7.126 30.7636 7.974 30.838 9.534C30.9209 11.22 30.9379 11.726 30.9379 15.996C30.9379 20.266 30.9209 20.774 30.838 22.46C30.7636 24.02 30.4853 24.866 30.2536 25.43C29.9791 26.1238 29.5444 26.7516 28.9807 27.268C28.3857 27.828 27.8205 28.174 27.0258 28.464C26.4308 28.684 25.5297 28.944 23.8701 29.016C22.0787 29.092 21.5411 29.11 17.0021 29.11C12.4631 29.11 11.9234 29.092 10.132 29.016C8.4745 28.944 7.57563 28.684 6.97638 28.464C6.23865 28.2065 5.5709 27.798 5.02137 27.268C4.45671 26.7512 4.0212 26.1227 3.74638 25.428C3.51475 24.866 3.23637 24.018 3.162 22.458C3.08125 20.772 3.06425 20.266 3.06425 15.992C3.06425 11.718 3.08125 11.216 3.162 9.53C3.2385 7.97 3.51475 7.122 3.7485 6.558C4.05662 5.812 4.42637 5.278 5.02137 4.718C5.61637 4.158 6.18162 3.812 6.97638 3.522C7.57563 3.302 8.4745 3.042 10.132 2.97C11.7003 2.902 12.308 2.882 15.4764 2.88V2.884ZM26.0759 5.54C25.808 5.54 25.5427 5.58966 25.2952 5.68615C25.0477 5.78264 24.8228 5.92407 24.6334 6.10236C24.4439 6.28064 24.2937 6.4923 24.1912 6.72525C24.0886 6.95819 24.0359 7.20786 24.0359 7.46C24.0359 7.71214 24.0886 7.96181 24.1912 8.19475C24.2937 8.4277 24.4439 8.63936 24.6334 8.81764C24.8228 8.99593 25.0477 9.13736 25.2952 9.23385C25.5427 9.33034 25.808 9.38 26.0759 9.38C26.6169 9.38 27.1358 9.17771 27.5184 8.81764C27.9009 8.45757 28.1159 7.96922 28.1159 7.46C28.1159 6.95078 27.9009 6.46242 27.5184 6.10236C27.1358 5.74229 26.6169 5.54 26.0759 5.54ZM17.0021 7.784C15.8442 7.767 14.6941 7.96697 13.6191 8.37228C12.544 8.77759 11.5653 9.38014 10.7401 10.1448C9.9148 10.9096 9.2594 11.8211 8.81204 12.8265C8.36468 13.8319 8.13429 14.911 8.13429 16.001C8.13429 17.091 8.36468 18.1701 8.81204 19.1755C9.2594 20.1809 9.9148 21.0924 10.7401 21.8572C11.5653 22.6219 12.544 23.2244 13.6191 23.6297C14.6941 24.035 15.8442 24.235 17.0021 24.218C19.294 24.1843 21.48 23.3038 23.0881 21.7665C24.6962 20.2292 25.5975 18.1583 25.5975 16.001C25.5975 13.8437 24.6962 11.7728 23.0881 10.2355C21.48 8.69817 19.294 7.81765 17.0021 7.784ZM17.0021 10.666C17.7464 10.666 18.4833 10.804 19.1709 11.072C19.8585 11.3401 20.4833 11.733 21.0096 12.2283C21.5358 12.7236 21.9533 13.3116 22.2381 13.9588C22.5229 14.6059 22.6695 15.2995 22.6695 16C22.6695 16.7005 22.5229 17.3941 22.2381 18.0412C21.9533 18.6884 21.5358 19.2764 21.0096 19.7717C20.4833 20.267 19.8585 20.6599 19.1709 20.928C18.4833 21.196 17.7464 21.334 17.0021 21.334C15.499 21.334 14.0575 20.772 12.9947 19.7717C11.9318 18.7714 11.3347 17.4147 11.3347 16C11.3347 14.5853 11.9318 13.2286 12.9947 12.2283C14.0575 11.228 15.499 10.666 17.0021 10.666Z" fill="#8C4DE5"/>
</svg>
