<svg width="40" height="38" viewBox="0 0 40 38" fill="none" xmlns="http://www.w3.org/2000/svg">
<path d="M20 0C8.95 0 0 8.71756 0 19.4806C0 28.1007 5.725 35.3816 13.675 37.9628C14.675 38.1332 15.05 37.5488 15.05 37.0375C15.05 36.5748 15.025 35.0407 15.025 33.4092C10 34.3102 8.7 32.216 8.3 31.1202C8.075 30.5602 7.1 28.8313 6.25 28.3686C5.55 28.0033 4.55 27.1024 6.225 27.078C7.8 27.0537 8.925 28.4904 9.3 29.0748C11.1 32.0212 13.975 31.1933 15.125 30.6819C15.3 29.4157 15.825 28.5634 16.4 28.0764C11.95 27.5894 7.3 25.9092 7.3 18.4579C7.3 16.3393 8.075 14.5861 9.35 13.2224C9.15 12.7354 8.45 10.7387 9.55 8.06009C9.55 8.06009 11.225 7.54873 15.05 10.0569C16.65 9.61854 18.35 9.39938 20.05 9.39938C21.75 9.39938 23.45 9.61854 25.05 10.0569C28.875 7.52437 30.55 8.06009 30.55 8.06009C31.65 10.7387 30.95 12.7354 30.75 13.2224C32.025 14.5861 32.8 16.315 32.8 18.4579C32.8 25.9335 28.125 27.5894 23.675 28.0764C24.4 28.6852 25.025 29.854 25.025 31.6803C25.025 34.2858 25 36.38 25 37.0375C25 37.5488 25.375 38.1576 26.375 37.9628C30.346 36.6582 33.7967 34.173 36.241 30.8573C38.6853 27.5416 40.0001 23.5625 40 19.4806C40 8.71756 31.05 0 20 0Z" fill="#8C4DE5"/>
</svg>
