<svg width="34" height="39" viewBox="0 0 34 39" fill="none" xmlns="http://www.w3.org/2000/svg">
<path d="M0 2.79338C0 1.25044 1.11775 0 2.49687 0H31.5031C32.8823 0 34 1.25044 34 2.79338V36.2066C34 37.7496 32.8823 39 31.5031 39H2.49687C1.11775 39 0 37.7496 0 36.2066V2.79338ZM10.5039 32.6479V15.0369H5.40175V32.6479H10.5039ZM7.95388 12.6311C9.7325 12.6311 10.8396 11.2808 10.8396 9.58913C10.8078 7.86094 9.73463 6.54713 7.98788 6.54713C6.24112 6.54713 5.1 7.86338 5.1 9.58913C5.1 11.2808 6.20713 12.6311 7.91988 12.6311H7.95388ZM18.3834 32.6479V22.8126C18.3834 22.2861 18.4174 21.7596 18.5534 21.3842C18.921 20.3336 19.7604 19.2441 21.1714 19.2441C23.018 19.2441 23.7554 20.8577 23.7554 23.2269V32.6479H28.8575V22.5469C28.8575 17.1356 26.3415 14.6201 22.984 14.6201C20.2767 14.6201 19.0634 16.3264 18.3834 17.5281V17.589H18.3494L18.3834 17.5281V15.0369H13.2834C13.3471 16.6896 13.2834 32.6479 13.2834 32.6479H18.3834Z" fill="#8C4DE5"/>
</svg>
